<svg width="1259" height="728" viewBox="0 0 1259 728" fill="none" xmlns="http://www.w3.org/2000/svg">
<g clip-path="url(#clip0_133_593)">
<rect x="669" y="544" width="20" height="20" rx="10" fill="#01FFFF"/>
<rect x="143" y="564" width="20" height="20" rx="10" fill="#01FFFF"/>
<path d="M994.5 439C994.5 427.954 1003.45 419 1014.5 419V419C1025.55 419 1034.5 427.954 1034.5 439V439C1034.5 450.046 1025.55 459 1014.5 459V459C1003.45 459 994.5 450.046 994.5 439V439Z" fill="#01FFFF"/>
<path d="M193 352C193 340.954 201.954 332 213 332V332C224.046 332 233 340.954 233 352V352C233 363.046 224.046 372 213 372V372C201.954 372 193 363.046 193 352V352Z" fill="#01FFFF"/>
<path d="M1051 297.5C1051 290.596 1056.6 285 1063.5 285V285C1070.4 285 1076 290.596 1076 297.5V297.5C1076 304.404 1070.4 310 1063.5 310V310C1056.6 310 1051 304.404 1051 297.5V297.5Z" fill="#01FFFF"/>
<path d="M371.5 149C371.5 137.954 380.454 129 391.5 129V129C402.546 129 411.5 137.954 411.5 149V149C411.5 160.046 402.546 169 391.5 169V169C380.454 169 371.5 160.046 371.5 149V149Z" fill="#75FAE1"/>
<rect x="484" y="352" width="30" height="30" rx="15" fill="#58FF9B"/>
<rect x="484" y="352" width="30" height="30" rx="15" fill="#58FF9B"/>
<rect x="384" y="678" width="100" height="100" rx="50" fill="#58FF9B"/>
<rect x="1088" y="-24" width="100" height="100" rx="50" fill="#7BF9EE"/>
<rect x="751" y="317" width="70" height="70" rx="35" fill="#FF8282" fill-opacity="0.51"/>
<rect x="660" y="637.345" width="14" height="175" rx="7" transform="rotate(-61.8579 660 637.345)" fill="url(#paint0_linear_133_593)" fill-opacity="0.51"/>
<rect x="292" y="389" width="100" height="100" rx="50" fill="#58FFF5" fill-opacity="0.33"/>
<rect x="163" y="205" width="30" height="30" rx="15" fill="#58A5FF"/>
<rect x="1123" y="625" width="30" height="30" rx="15" fill="#019BFF"/>
<rect x="851" y="205" width="30" height="30" rx="15" fill="#9CFAC2"/>
<rect x="588" y="205" width="10" height="10" rx="5" fill="#9CFAC2"/>
<rect x="881" y="584" width="30" height="30" rx="15" fill="#9CFAC2"/>
</g>
<defs>
<linearGradient id="paint0_linear_133_593" x1="667" y1="637.345" x2="667" y2="812.345" gradientUnits="userSpaceOnUse">
<stop stop-color="#23FB00" stop-opacity="0.49"/>
<stop offset="1" stop-color="#01CBF8" stop-opacity="0"/>
</linearGradient>
<clipPath id="clip0_133_593">
<rect width="1259" height="728" fill="white"/>
</clipPath>
</defs>
</svg>
