<svg width="1259" height="728" viewBox="0 0 1259 728" fill="none" xmlns="http://www.w3.org/2000/svg">
<g clip-path="url(#clip0_133_136)">
<path fill-rule="evenodd" clip-rule="evenodd" d="M1189.23 107.066C1193.36 111.157 1193.36 117.787 1189.23 121.877L897.389 398.932C893.264 403.022 886.575 403.022 882.449 398.932C878.324 394.843 878.324 388.213 882.449 384.124L1174.29 107.068C1178.42 102.977 1185.1 102.977 1189.23 107.068V107.066Z" fill="#019BFF"/>
<path opacity="0.2" fill-rule="evenodd" clip-rule="evenodd" d="M1189.23 107.068C1193.36 111.157 1193.36 117.787 1189.23 121.877L897.389 398.932C893.264 403.022 886.575 403.022 882.449 398.932C878.324 394.843 878.324 388.213 882.449 384.124L1174.29 107.068C1178.42 102.977 1185.1 102.977 1189.23 107.068Z" fill="#01FFFF"/>
<path fill-rule="evenodd" clip-rule="evenodd" d="M375.451 557.223C379.56 561.331 379.56 567.991 375.451 572.098L110.961 836.531C106.853 840.639 100.191 840.639 96.0818 836.531C91.9727 832.424 91.9727 825.764 96.0818 821.657L360.572 557.223C364.68 553.116 371.342 553.116 375.451 557.223Z" fill="#01FFFF"/>
<path opacity="0.5" fill-rule="evenodd" clip-rule="evenodd" d="M1453.65 191.423C1457.76 195.531 1457.76 202.19 1453.65 206.298L1181.16 478.731C1177.05 482.838 1170.39 482.838 1166.28 478.731C1162.17 474.624 1162.17 467.964 1166.28 463.857L1438.77 191.423C1442.88 187.316 1449.54 187.316 1453.65 191.423Z" fill="#01FFFF"/>
<path opacity="0.2" fill-rule="evenodd" clip-rule="evenodd" d="M1403.65 481.424C1407.76 485.532 1407.76 492.191 1403.65 496.299L1131.16 768.732C1127.05 772.84 1120.39 772.84 1116.28 768.732C1112.17 764.624 1112.17 757.965 1116.28 753.858L1388.77 481.424C1392.88 477.317 1399.54 477.317 1403.65 481.424Z" fill="#01FFFF"/>
<path opacity="0.2" fill-rule="evenodd" clip-rule="evenodd" d="M495.45 208.08C499.559 212.188 499.559 218.848 495.45 222.955L222.961 495.388C218.852 499.495 212.19 499.495 208.081 495.388C203.973 491.281 203.973 484.621 208.081 480.514L480.571 208.08C484.68 203.973 491.342 203.973 495.45 208.08Z" fill="#01FFFF"/>
<path opacity="0.2" fill-rule="evenodd" clip-rule="evenodd" d="M710.257 336.532C712.581 338.576 712.581 341.889 710.257 343.933L556.157 479.468C553.834 481.511 550.066 481.511 547.742 479.468C545.419 477.424 545.419 474.111 547.742 472.068L701.843 336.532C704.166 334.489 707.934 334.489 710.257 336.532Z" fill="#01FFFF"/>
<path opacity="0.2" fill-rule="evenodd" clip-rule="evenodd" d="M969.799 485.097C973.908 489.205 973.908 495.865 969.799 499.972L697.31 772.405C693.201 776.512 686.539 776.512 682.43 772.405C678.322 768.298 678.322 761.638 682.43 757.531L954.92 485.097C959.029 480.99 965.691 480.99 969.799 485.097Z" fill="#7BF9EE"/>
<path opacity="0.2" fill-rule="evenodd" clip-rule="evenodd" d="M480.649 658.423C484.759 662.531 484.759 669.191 480.649 673.298L275.16 878.731C271.051 882.839 264.389 882.839 260.28 878.731C256.172 874.623 256.172 867.964 260.28 863.857L465.77 658.423C469.879 654.316 476.541 654.316 480.649 658.423Z" fill="#01FFFF"/>
<path opacity="0.2" fill-rule="evenodd" clip-rule="evenodd" d="M1189.23 107.068C1193.36 111.157 1193.36 117.787 1189.23 121.877L897.389 398.932C893.264 403.022 886.575 403.022 882.449 398.932C878.324 394.843 878.324 388.213 882.449 384.124L1174.29 107.068C1178.42 102.977 1185.1 102.977 1189.23 107.068Z" fill="#01FFFF"/>
<path opacity="0.2" fill-rule="evenodd" clip-rule="evenodd" d="M969.876 -41.9325C974.001 -37.8435 974.001 -31.2135 969.876 -27.1235L678.034 249.932C673.909 254.022 667.22 254.022 663.094 249.932C658.969 245.843 658.969 239.213 663.094 235.124L954.936 -41.9325C959.062 -46.0225 965.75 -46.0225 969.876 -41.9325Z" fill="#01FF7E"/>
<path opacity="0.2" fill-rule="evenodd" clip-rule="evenodd" d="M213.876 249.068C218.001 253.157 218.001 259.787 213.876 263.877L-77.9662 540.932C-82.0912 545.022 -88.7803 545.022 -92.9062 540.932C-97.0312 536.843 -97.0312 530.213 -92.9062 526.124L198.936 249.068C203.062 244.977 209.75 244.977 213.876 249.068Z" fill="#01FFFF"/>
<rect x="669" y="544" width="20" height="20" rx="10" fill="#01FFFF"/>
<rect x="143" y="564" width="20" height="20" rx="10" fill="#01FFFF"/>
<rect x="1103" y="352" width="40" height="40" rx="20" fill="#01FFFF"/>
<path d="M371.5 149C371.5 137.954 380.454 129 391.5 129V129C402.546 129 411.5 137.954 411.5 149V149C411.5 160.046 402.546 169 391.5 169V169C380.454 169 371.5 160.046 371.5 149V149Z" fill="#75FAE1"/>
<rect x="484" y="352" width="30" height="30" rx="15" fill="#58FF9B"/>
<rect x="484" y="352" width="30" height="30" rx="15" fill="#58FF9B"/>
<rect x="1123" y="625" width="30" height="30" rx="15" fill="#019BFF"/>
<rect x="851" y="205" width="30" height="30" rx="15" fill="#9CFAC2"/>
</g>
<defs>
<clipPath id="clip0_133_136">
<rect width="1259" height="728" fill="white"/>
</clipPath>
</defs>
</svg>
