<svg width="160" height="50" viewBox="0 0 160 50" fill="none" xmlns="http://www.w3.org/2000/svg">
<path d="M144.068 25C143.787 24.1392 143.416 23.3679 142.956 22.6861C142.504 21.9957 141.963 21.4077 141.332 20.9219C140.71 20.4361 140.003 20.0653 139.21 19.8097C138.418 19.554 137.548 19.4261 136.602 19.4261C135.051 19.4261 133.641 19.8267 132.371 20.6278C131.101 21.429 130.091 22.6094 129.341 24.169C128.591 25.7287 128.216 27.642 128.216 29.9091C128.216 32.1761 128.595 34.0895 129.354 35.6491C130.112 37.2088 131.139 38.3892 132.435 39.1903C133.73 39.9915 135.188 40.392 136.807 40.392C138.307 40.392 139.628 40.0724 140.77 39.4332C141.92 38.7855 142.815 37.8736 143.455 36.6974C144.102 35.5128 144.426 34.1193 144.426 32.517L145.398 32.7216H137.523V29.9091H147.494V32.7216C147.494 34.8778 147.034 36.7528 146.114 38.3466C145.202 39.9403 143.94 41.1761 142.33 42.054C140.727 42.9233 138.886 43.358 136.807 43.358C134.489 43.358 132.452 42.8125 130.696 41.7216C128.949 40.6307 127.585 39.0795 126.605 37.0682C125.634 35.0568 125.148 32.6705 125.148 29.9091C125.148 27.8381 125.425 25.9759 125.979 24.3224C126.541 22.6605 127.334 21.2457 128.357 20.0781C129.379 18.9105 130.589 18.0156 131.987 17.3935C133.385 16.7713 134.923 16.4602 136.602 16.4602C137.983 16.4602 139.27 16.669 140.463 17.0866C141.665 17.4957 142.734 18.0795 143.672 18.8381C144.618 19.5881 145.406 20.4872 146.037 21.5355C146.668 22.5753 147.102 23.7301 147.341 25H144.068Z" fill="url(#paint0_linear_123_3)"/>
<path d="M144.068 25L143.118 25.3106L143.343 26H144.068V25ZM142.956 22.6861L142.119 23.2336L142.123 23.2396L142.127 23.2456L142.956 22.6861ZM141.332 20.9219L140.717 21.7101L140.722 21.7141L141.332 20.9219ZM139.21 19.8097L139.517 18.8579L139.517 18.8579L139.21 19.8097ZM129.341 24.169L130.242 24.6024L130.242 24.6024L129.341 24.169ZM129.354 35.6491L128.454 36.0865L128.454 36.0865L129.354 35.6491ZM140.77 39.4332L141.258 40.3059L141.26 40.3046L140.77 39.4332ZM143.455 36.6974L142.577 36.2177L142.576 36.2199L143.455 36.6974ZM144.426 32.517L144.632 31.5385L143.426 31.2846V32.517H144.426ZM145.398 32.7216V33.7216L145.604 31.743L145.398 32.7216ZM137.523 32.7216H136.523V33.7216H137.523V32.7216ZM137.523 29.9091V28.9091H136.523V29.9091H137.523ZM147.494 29.9091H148.494V28.9091H147.494V29.9091ZM146.114 38.3466L145.248 37.8465L145.246 37.85L146.114 38.3466ZM142.33 42.054L142.806 42.9329L142.808 42.9321L142.33 42.054ZM130.696 41.7216L130.166 42.5698L130.168 42.571L130.696 41.7216ZM126.605 37.0682L125.705 37.5031L125.706 37.5062L126.605 37.0682ZM125.979 24.3224L125.031 24.0018L125.03 24.0047L125.979 24.3224ZM128.357 20.0781L129.109 20.737L129.109 20.737L128.357 20.0781ZM140.463 17.0866L140.133 18.0305L140.141 18.0333L140.463 17.0866ZM143.672 18.8381L143.043 19.6155L143.051 19.6217L143.672 18.8381ZM146.037 21.5355L145.18 22.051L145.182 22.0541L146.037 21.5355ZM147.341 25V26H148.546L148.324 24.8153L147.341 25ZM145.019 24.6894C144.712 23.7492 144.302 22.8927 143.785 22.1266L142.127 23.2456C142.53 23.8431 142.862 24.5292 143.118 25.3106L145.019 24.6894ZM143.793 22.1386C143.282 21.358 142.665 20.6862 141.943 20.1296L140.722 21.7141C141.261 22.1291 141.727 22.6335 142.119 23.2336L143.793 22.1386ZM141.948 20.1337C141.228 19.5718 140.415 19.1476 139.517 18.8579L138.903 20.7614C139.59 20.983 140.192 21.3003 140.717 21.7101L141.948 20.1337ZM139.517 18.8579C138.613 18.5663 137.639 18.4261 136.602 18.4261V20.4261C137.458 20.4261 138.222 20.5417 138.903 20.7614L139.517 18.8579ZM136.602 18.4261C134.869 18.4261 133.272 18.8767 131.837 19.7821L132.904 21.4736C134.009 20.7767 135.233 20.4261 136.602 20.4261V18.4261ZM131.837 19.7821C130.385 20.698 129.258 22.0331 128.44 23.7357L130.242 24.6024C130.923 23.1856 131.816 22.16 132.904 21.4736L131.837 19.7821ZM128.44 23.7357C127.608 25.4657 127.216 27.5366 127.216 29.9091H129.216C129.216 27.7475 129.574 25.9917 130.242 24.6024L128.44 23.7357ZM127.216 29.9091C127.216 32.283 127.612 34.3554 128.454 36.0865L130.253 35.2118C129.578 33.8236 129.216 32.0693 129.216 29.9091H127.216ZM128.454 36.0865C129.284 37.7922 130.431 39.1268 131.909 40.0408L132.961 38.3398C131.848 37.6516 130.94 36.6254 130.253 35.2118L128.454 36.0865ZM131.909 40.0408C133.372 40.946 135.014 41.392 136.807 41.392V39.392C135.361 39.392 134.088 39.037 132.961 38.3398L131.909 40.0408ZM136.807 41.392C138.453 41.392 139.946 41.0401 141.258 40.3059L140.281 38.5606C139.309 39.1048 138.161 39.392 136.807 39.392V41.392ZM141.26 40.3046C142.577 39.5634 143.606 38.5138 144.333 37.175L142.576 36.2199C142.025 37.2333 141.264 38.0077 140.279 38.5618L141.26 40.3046ZM144.332 37.1772C145.074 35.8202 145.426 34.2557 145.426 32.517H143.426C143.426 33.983 143.131 35.2054 142.577 36.2177L144.332 37.1772ZM144.22 33.4956L145.192 33.7001L145.604 31.743L144.632 31.5385L144.22 33.4956ZM145.398 31.7216H137.523V33.7216H145.398V31.7216ZM138.523 32.7216V29.9091H136.523V32.7216H138.523ZM137.523 30.9091H147.494V28.9091H137.523V30.9091ZM146.494 29.9091V32.7216H148.494V29.9091H146.494ZM146.494 32.7216C146.494 34.7326 146.066 36.4291 145.248 37.8465L146.98 38.8467C148.002 37.0766 148.494 35.023 148.494 32.7216H146.494ZM145.246 37.85C144.426 39.2831 143.299 40.3868 141.851 41.1759L142.808 42.9321C144.582 41.9655 145.978 40.5976 146.982 38.8432L145.246 37.85ZM141.853 41.175C140.416 41.9543 138.744 42.358 136.807 42.358V44.358C139.029 44.358 141.038 43.8923 142.806 42.9329L141.853 41.175ZM136.807 42.358C134.652 42.358 132.802 41.8531 131.224 40.8722L130.168 42.571C132.101 43.7719 134.325 44.358 136.807 44.358V42.358ZM131.226 40.8734C129.651 39.8904 128.409 38.4879 127.504 36.6301L125.706 37.5062C126.761 39.6712 128.246 41.371 130.166 42.5698L131.226 40.8734ZM127.506 36.6332C126.613 34.7857 126.148 32.5546 126.148 29.9091H124.148C124.148 32.7863 124.654 35.3279 125.705 37.5031L127.506 36.6332ZM126.148 29.9091C126.148 27.9264 126.413 26.174 126.927 24.6401L125.03 24.0047C124.436 25.7777 124.148 27.7498 124.148 29.9091H126.148ZM126.926 24.643C127.452 23.0894 128.183 21.7937 129.109 20.737L127.604 19.4192C126.484 20.6978 125.631 22.2316 125.031 24.0018L126.926 24.643ZM129.109 20.737C130.038 19.6767 131.13 18.8695 132.394 18.307L131.581 16.4799C130.049 17.1618 128.721 18.1443 127.604 19.4192L129.109 20.737ZM132.394 18.307C133.652 17.7472 135.05 17.4602 136.602 17.4602V15.4602C134.797 15.4602 133.118 15.7954 131.581 16.4799L132.394 18.307ZM136.602 17.4602C137.881 17.4602 139.055 17.6533 140.133 18.0305L140.793 16.1428C139.485 15.6847 138.085 15.4602 136.602 15.4602V17.4602ZM140.141 18.0333C141.237 18.4065 142.202 18.9348 143.043 19.6155L144.301 18.0607C143.267 17.2243 142.093 16.585 140.785 16.14L140.141 18.0333ZM143.051 19.6217C143.901 20.2962 144.61 21.1041 145.18 22.051L146.894 21.02C146.202 19.8703 145.334 18.88 144.293 18.0545L143.051 19.6217ZM145.182 22.0541C145.746 22.9849 146.14 24.0254 146.358 25.1847L148.324 24.8153C148.064 23.4348 147.589 22.1657 146.892 21.0169L145.182 22.0541ZM147.341 24H144.068V26H147.341V24Z" fill="url(#paint1_linear_123_3)"/>
<path d="M24.1705 16.8182H27.9545L36.8523 38.5511H37.1591L46.0568 16.8182H49.8409V43H46.875V23.108H46.6193L38.4375 43H35.5739L27.392 23.108H27.1364V43H24.1705L24.1705 16.8182Z" fill="url(#paint2_linear_123_3)"/>
<path d="M24.1705 16.8182V15.8182H23.1705V16.8182H24.1705ZM27.9545 16.8182L28.88 16.4393L28.6257 15.8182H27.9545V16.8182ZM36.8523 38.5511L35.9268 38.93L36.1811 39.5511H36.8523V38.5511ZM37.1591 38.5511V39.5511H37.8302L38.0845 38.93L37.1591 38.5511ZM46.0568 16.8182V15.8182H45.3857L45.1314 16.4393L46.0568 16.8182ZM49.8409 16.8182H50.8409V15.8182H49.8409V16.8182ZM49.8409 43V44H50.8409V43H49.8409ZM46.875 43H45.875V44H46.875V43ZM46.875 23.108H47.875V22.108H46.875V23.108ZM46.6193 23.108V22.108H45.9493L45.6945 22.7276L46.6193 23.108ZM38.4375 43V44H39.1075L39.3623 43.3804L38.4375 43ZM35.5739 43L34.649 43.3804L34.9039 44H35.5739V43ZM27.392 23.108L28.3169 22.7276L28.062 22.108H27.392V23.108ZM27.1364 23.108V22.108H26.1364V23.108H27.1364ZM27.1364 43V44H28.1364V43H27.1364ZM24.1705 43H23.1705V44H24.1705V43ZM24.1705 17.8182H27.9545V15.8182H24.1705V17.8182ZM27.0291 17.1971L35.9268 38.93L37.7777 38.1722L28.88 16.4393L27.0291 17.1971ZM36.8523 39.5511H37.1591V37.5511H36.8523V39.5511ZM38.0845 38.93L46.9823 17.1971L45.1314 16.4393L36.2336 38.1722L38.0845 38.93ZM46.0568 17.8182H49.8409V15.8182H46.0568V17.8182ZM48.8409 16.8182V43H50.8409V16.8182H48.8409ZM49.8409 42H46.875V44H49.8409V42ZM47.875 43V23.108H45.875V43H47.875ZM46.875 22.108H46.6193V24.108H46.875V22.108ZM45.6945 22.7276L37.5127 42.6196L39.3623 43.3804L47.5441 23.4883L45.6945 22.7276ZM38.4375 42H35.5739V44H38.4375V42ZM36.4987 42.6196L28.3169 22.7276L26.4672 23.4883L34.649 43.3804L36.4987 42.6196ZM27.392 22.108H27.1364V24.108H27.392V22.108ZM26.1364 23.108V43H28.1364V23.108H26.1364ZM27.1364 42H24.1705L24.1705 44H27.1364V42ZM25.1705 43V16.8182H23.1705L23.1705 43H25.1705Z" fill="url(#paint3_linear_123_3)"/>
<path d="M53 24C53 19.5817 56.5817 16 61 16V16C65.4183 16 69 19.5817 69 24V36C69 40.4183 65.4183 44 61 44V44C56.5817 44 53 40.4183 53 36V24Z" fill="url(#paint4_linear_123_3)"/>
<path d="M94.2386 25H91.0682C90.8807 24.0881 90.5526 23.2869 90.0838 22.5966C89.6236 21.9062 89.0611 21.3267 88.3963 20.858C87.7401 20.3807 87.0114 20.0227 86.2102 19.7841C85.4091 19.5455 84.5739 19.4261 83.7045 19.4261C82.1193 19.4261 80.6832 19.8267 79.3963 20.6278C78.1179 21.429 77.0994 22.6094 76.3409 24.169C75.5909 25.7287 75.2159 27.642 75.2159 29.9091C75.2159 32.1761 75.5909 34.0895 76.3409 35.6491C77.0994 37.2088 78.1179 38.3892 79.3963 39.1903C80.6832 39.9915 82.1193 40.392 83.7045 40.392C84.5739 40.392 85.4091 40.2727 86.2102 40.0341C87.0114 39.7955 87.7401 39.4418 88.3963 38.973C89.0611 38.4957 89.6236 37.9119 90.0838 37.2216C90.5526 36.5227 90.8807 35.7216 91.0682 34.8182H94.2386C94 36.1562 93.5653 37.3537 92.9347 38.4105C92.304 39.4673 91.5199 40.3665 90.5824 41.108C89.6449 41.8409 88.5923 42.3991 87.4247 42.7827C86.2656 43.1662 85.0256 43.358 83.7045 43.358C81.4716 43.358 79.4858 42.8125 77.7472 41.7216C76.0085 40.6307 74.6406 39.0795 73.6435 37.0682C72.6463 35.0568 72.1477 32.6705 72.1477 29.9091C72.1477 27.1477 72.6463 24.7614 73.6435 22.75C74.6406 20.7386 76.0085 19.1875 77.7472 18.0966C79.4858 17.0057 81.4716 16.4602 83.7045 16.4602C85.0256 16.4602 86.2656 16.652 87.4247 17.0355C88.5923 17.419 89.6449 17.9815 90.5824 18.723C91.5199 19.456 92.304 20.3509 92.9347 21.4077C93.5653 22.456 94 23.6534 94.2386 25Z" fill="url(#paint5_linear_123_3)"/>
<path d="M94.2386 25V26H95.4314L95.2233 24.8255L94.2386 25ZM91.0682 25L90.0887 25.2014L90.2529 26H91.0682V25ZM90.0838 22.5966L89.2517 23.1513L89.2565 23.1583L90.0838 22.5966ZM88.3963 20.858L87.8081 21.6667L87.8141 21.671L87.82 21.6752L88.3963 20.858ZM86.2102 19.7841L85.9248 20.7425L85.9248 20.7425L86.2102 19.7841ZM79.3963 20.6278L78.8678 19.7789L78.8653 19.7805L79.3963 20.6278ZM76.3409 24.169L75.4416 23.7317L75.4397 23.7357L76.3409 24.169ZM76.3409 35.6491L75.4397 36.0825L75.4416 36.0865L76.3409 35.6491ZM79.3963 39.1903L78.8653 40.0377L78.8678 40.0393L79.3963 39.1903ZM86.2102 40.0341L85.9248 39.0757L85.9248 39.0757L86.2102 40.0341ZM88.3963 38.973L88.9775 39.7867L88.9795 39.7853L88.3963 38.973ZM90.0838 37.2216L89.2533 36.6646L89.2518 36.6669L90.0838 37.2216ZM91.0682 34.8182V33.8182H90.2544L90.089 34.615L91.0682 34.8182ZM94.2386 34.8182L95.2231 34.9938L95.4328 33.8182H94.2386V34.8182ZM92.9347 38.4105L92.0759 37.8981L92.0759 37.8981L92.9347 38.4105ZM90.5824 41.108L91.1983 41.8958L91.2027 41.8923L90.5824 41.108ZM87.4247 42.7827L87.1127 41.8326L87.1106 41.8333L87.4247 42.7827ZM77.7472 41.7216L77.2157 42.5687L77.2157 42.5687L77.7472 41.7216ZM73.6435 37.0682L74.5394 36.624L74.5394 36.624L73.6435 37.0682ZM87.4247 17.0355L87.1106 17.9849L87.1127 17.9856L87.4247 17.0355ZM90.5824 18.723L89.962 19.5074L89.9665 19.5108L90.5824 18.723ZM92.9347 21.4077L92.0759 21.9201L92.0778 21.9232L92.9347 21.4077ZM94.2386 24H91.0682V26H94.2386V24ZM92.0477 24.7986C91.8367 23.7726 91.4619 22.846 90.9111 22.0348L89.2565 23.1583C89.6432 23.7278 89.9246 24.4035 90.0887 25.2014L92.0477 24.7986ZM90.9159 22.0419C90.3887 21.2511 89.7401 20.5819 88.9726 20.0407L87.82 21.6752C88.3821 22.0715 88.8585 22.5614 89.2518 23.1513L90.9159 22.0419ZM88.9845 20.0492C88.2338 19.5033 87.4022 19.0957 86.4957 18.8257L85.9248 20.7425C86.6206 20.9497 87.2463 21.2581 87.8081 21.6667L88.9845 20.0492ZM86.4957 18.8257C85.5983 18.5584 84.6667 18.4261 83.7045 18.4261V20.4261C84.4811 20.4261 85.2199 20.5325 85.9248 20.7425L86.4957 18.8257ZM83.7045 18.4261C81.9415 18.4261 80.3208 18.8744 78.8678 19.7789L79.9248 21.4768C81.0457 20.779 82.2972 20.4261 83.7045 20.4261V18.4261ZM78.8653 19.7805C77.4055 20.6953 76.2696 22.0293 75.4416 23.7317L77.2402 24.6064C77.9293 23.1895 78.8303 22.1627 79.9273 21.4752L78.8653 19.7805ZM75.4397 23.7357C74.6078 25.4657 74.2159 27.5366 74.2159 29.9091H76.2159C76.2159 27.7475 76.5741 25.9917 77.2421 24.6024L75.4397 23.7357ZM74.2159 29.9091C74.2159 32.2816 74.6078 34.3525 75.4397 36.0825L77.2421 35.2158C76.5741 33.8265 76.2159 32.0707 76.2159 29.9091H74.2159ZM75.4416 36.0865C76.2696 37.7889 77.4055 39.1229 78.8653 40.0377L79.9273 38.343C78.8303 37.6555 77.9293 36.6287 77.2402 35.2118L75.4416 36.0865ZM78.8678 40.0393C80.3208 40.9438 81.9415 41.392 83.7045 41.392V39.392C82.2972 39.392 81.0457 39.0392 79.9248 38.3414L78.8678 40.0393ZM83.7045 41.392C84.6667 41.392 85.5983 41.2598 86.4957 40.9925L85.9248 39.0757C85.2199 39.2857 84.4811 39.392 83.7045 39.392V41.392ZM86.4957 40.9925C87.3988 40.7235 88.2281 40.3221 88.9775 39.7867L87.8151 38.1593C87.252 38.5615 86.6239 38.8674 85.9248 39.0757L86.4957 40.9925ZM88.9795 39.7853C89.7434 39.2369 90.3898 38.5654 90.9159 37.7763L89.2518 36.6669C88.8574 37.2585 88.3787 37.7546 87.8131 38.1607L88.9795 39.7853ZM90.9143 37.7786C91.4616 36.9626 91.8361 36.039 92.0473 35.0214L90.089 34.615C89.9252 35.4042 89.6435 36.0828 89.2533 36.6646L90.9143 37.7786ZM91.0682 35.8182H94.2386V33.8182H91.0682V35.8182ZM93.2542 34.6426C93.0345 35.8741 92.6386 36.9553 92.0759 37.8981L93.7934 38.923C94.4921 37.7521 94.9655 36.4384 95.2231 34.9938L93.2542 34.6426ZM92.0759 37.8981C91.5057 38.8537 90.8014 39.6598 89.9621 40.3236L91.2027 41.8923C92.2384 41.0732 93.1023 40.081 93.7934 38.923L92.0759 37.8981ZM89.9665 40.3201C89.1231 40.9795 88.174 41.484 87.1127 41.8326L87.7368 43.7327C89.0107 43.3143 90.1667 42.7023 91.1983 41.8958L89.9665 40.3201ZM87.1106 41.8333C86.0608 42.1806 84.9276 42.358 83.7045 42.358V44.358C85.1236 44.358 86.4704 44.1517 87.7388 43.732L87.1106 41.8333ZM83.7045 42.358C81.6425 42.358 79.8441 41.8568 78.2787 40.8745L77.2157 42.5687C79.1275 43.7682 81.3007 44.358 83.7045 44.358V42.358ZM78.2787 40.8745C76.7108 39.8908 75.4625 38.4861 74.5394 36.624L72.7475 37.5124C73.8187 39.673 75.3062 41.3706 77.2157 42.5687L78.2787 40.8745ZM74.5394 36.624C73.6246 34.7788 73.1477 32.5511 73.1477 29.9091H71.1477C71.1477 32.7898 71.668 35.3348 72.7475 37.5124L74.5394 36.624ZM73.1477 29.9091C73.1477 27.267 73.6246 25.0394 74.5394 23.1942L72.7475 22.3058C71.668 24.4834 71.1477 27.0284 71.1477 29.9091H73.1477ZM74.5394 23.1942C75.4625 21.3321 76.7108 19.9274 78.2787 18.9437L77.2157 17.2495C75.3062 18.4476 73.8187 20.1451 72.7475 22.3058L74.5394 23.1942ZM78.2787 18.9437C79.8441 17.9614 81.6425 17.4602 83.7045 17.4602V15.4602C81.3007 15.4602 79.1275 16.0499 77.2157 17.2495L78.2787 18.9437ZM83.7045 17.4602C84.9276 17.4602 86.0608 17.6375 87.1106 17.9849L87.7388 16.0861C86.4704 15.6664 85.1236 15.4602 83.7045 15.4602V17.4602ZM87.1127 17.9856C88.1718 18.3335 89.1194 18.8409 89.9621 19.5073L91.2027 17.9387C90.1704 17.1222 89.0129 16.5046 87.7368 16.0854L87.1127 17.9856ZM89.9665 19.5108C90.8034 20.1652 91.5063 20.9656 92.0759 21.9201L93.7934 20.8952C93.1016 19.7361 92.2364 18.7468 91.1983 17.9352L89.9665 19.5108ZM92.0778 21.9232C92.6384 22.8549 93.0342 23.9343 93.254 25.1745L95.2233 24.8255C94.9658 23.3725 94.4923 22.057 93.7915 20.8921L92.0778 21.9232Z" fill="url(#paint6_linear_123_3)"/>
<path d="M121.261 29.9091C121.261 32.6705 120.763 35.0568 119.766 37.0682C118.768 39.0795 117.401 40.6307 115.662 41.7216C113.923 42.8125 111.938 43.358 109.705 43.358C107.472 43.358 105.486 42.8125 103.747 41.7216C102.009 40.6307 100.641 39.0795 99.6435 37.0682C98.6463 35.0568 98.1477 32.6705 98.1477 29.9091C98.1477 27.1477 98.6463 24.7614 99.6435 22.75C100.641 20.7386 102.009 19.1875 103.747 18.0966C105.486 17.0057 107.472 16.4602 109.705 16.4602C111.938 16.4602 113.923 17.0057 115.662 18.0966C117.401 19.1875 118.768 20.7386 119.766 22.75C120.763 24.7614 121.261 27.1477 121.261 29.9091ZM118.193 29.9091C118.193 27.642 117.814 25.7287 117.055 24.169C116.305 22.6094 115.287 21.429 114 20.6278C112.722 19.8267 111.29 19.4261 109.705 19.4261C108.119 19.4261 106.683 19.8267 105.396 20.6278C104.118 21.429 103.099 22.6094 102.341 24.169C101.591 25.7287 101.216 27.642 101.216 29.9091C101.216 32.1761 101.591 34.0895 102.341 35.6491C103.099 37.2088 104.118 38.3892 105.396 39.1903C106.683 39.9915 108.119 40.392 109.705 40.392C111.29 40.392 112.722 39.9915 114 39.1903C115.287 38.3892 116.305 37.2088 117.055 35.6491C117.814 34.0895 118.193 32.1761 118.193 29.9091Z" fill="url(#paint7_linear_123_3)"/>
<path d="M119.766 37.0682L118.87 36.624L118.87 36.624L119.766 37.0682ZM115.662 41.7216L116.193 42.5687L116.193 42.5687L115.662 41.7216ZM103.747 41.7216L103.216 42.5687L103.216 42.5687L103.747 41.7216ZM99.6435 37.0682L100.539 36.624L100.539 36.624L99.6435 37.0682ZM115.662 18.0966L116.193 17.2495L116.193 17.2495L115.662 18.0966ZM119.766 22.75L118.87 23.1942L118.87 23.1942L119.766 22.75ZM117.055 24.169L116.154 24.6024L116.156 24.6064L117.055 24.169ZM114 20.6278L113.469 21.4752L113.472 21.4768L114 20.6278ZM105.396 20.6278L104.868 19.7789L104.865 19.7805L105.396 20.6278ZM102.341 24.169L101.442 23.7317L101.44 23.7357L102.341 24.169ZM102.341 35.6491L101.44 36.0825L101.442 36.0865L102.341 35.6491ZM105.396 39.1903L104.865 40.0377L104.868 40.0393L105.396 39.1903ZM114 39.1903L113.472 38.3414L113.469 38.343L114 39.1903ZM117.055 35.6491L116.156 35.2118L116.154 35.2158L117.055 35.6491ZM120.261 29.9091C120.261 32.5511 119.784 34.7788 118.87 36.624L120.662 37.5124C121.741 35.3348 122.261 32.7898 122.261 29.9091H120.261ZM118.87 36.624C117.947 38.4861 116.698 39.8908 115.13 40.8745L116.193 42.5687C118.103 41.3706 119.59 39.673 120.662 37.5124L118.87 36.624ZM115.13 40.8745C113.565 41.8568 111.767 42.358 109.705 42.358V44.358C112.108 44.358 114.282 43.7682 116.193 42.5687L115.13 40.8745ZM109.705 42.358C107.642 42.358 105.844 41.8568 104.279 40.8745L103.216 42.5687C105.128 43.7682 107.301 44.358 109.705 44.358V42.358ZM104.279 40.8745C102.711 39.8908 101.463 38.4861 100.539 36.624L98.7475 37.5124C99.8187 39.673 101.306 41.3706 103.216 42.5687L104.279 40.8745ZM100.539 36.624C99.6246 34.7788 99.1477 32.5511 99.1477 29.9091H97.1477C97.1477 32.7898 97.668 35.3348 98.7475 37.5124L100.539 36.624ZM99.1477 29.9091C99.1477 27.267 99.6246 25.0394 100.539 23.1942L98.7475 22.3058C97.668 24.4834 97.1477 27.0284 97.1477 29.9091H99.1477ZM100.539 23.1942C101.463 21.3321 102.711 19.9274 104.279 18.9437L103.216 17.2495C101.306 18.4476 99.8187 20.1451 98.7475 22.3058L100.539 23.1942ZM104.279 18.9437C105.844 17.9614 107.642 17.4602 109.705 17.4602V15.4602C107.301 15.4602 105.128 16.0499 103.216 17.2495L104.279 18.9437ZM109.705 17.4602C111.767 17.4602 113.565 17.9614 115.13 18.9437L116.193 17.2495C114.282 16.0499 112.108 15.4602 109.705 15.4602V17.4602ZM115.13 18.9437C116.698 19.9274 117.947 21.3321 118.87 23.1942L120.662 22.3058C119.59 20.1451 118.103 18.4476 116.193 17.2495L115.13 18.9437ZM118.87 23.1942C119.784 25.0394 120.261 27.267 120.261 29.9091H122.261C122.261 27.0284 121.741 24.4834 120.662 22.3058L118.87 23.1942ZM119.193 29.9091C119.193 27.5352 118.797 25.4628 117.955 23.7317L116.156 24.6064C116.831 25.9946 117.193 27.7489 117.193 29.9091H119.193ZM117.957 23.7357C117.136 22.0298 115.998 20.694 114.528 19.7789L113.472 21.4768C114.575 22.164 115.475 23.189 116.154 24.6024L117.957 23.7357ZM114.531 19.7805C113.085 18.8744 111.468 18.4261 109.705 18.4261V20.4261C111.112 20.4261 112.358 20.779 113.469 21.4752L114.531 19.7805ZM109.705 18.4261C107.941 18.4261 106.321 18.8744 104.868 19.7789L105.925 21.4768C107.046 20.779 108.297 20.4261 109.705 20.4261V18.4261ZM104.865 19.7805C103.406 20.6953 102.27 22.0293 101.442 23.7317L103.24 24.6064C103.929 23.1895 104.83 22.1627 105.927 21.4752L104.865 19.7805ZM101.44 23.7357C100.608 25.4657 100.216 27.5366 100.216 29.9091H102.216C102.216 27.7475 102.574 25.9917 103.242 24.6024L101.44 23.7357ZM100.216 29.9091C100.216 32.2816 100.608 34.3525 101.44 36.0825L103.242 35.2158C102.574 33.8265 102.216 32.0707 102.216 29.9091H100.216ZM101.442 36.0865C102.27 37.7889 103.406 39.1229 104.865 40.0377L105.927 38.343C104.83 37.6555 103.929 36.6287 103.24 35.2118L101.442 36.0865ZM104.868 40.0393C106.321 40.9438 107.941 41.392 109.705 41.392V39.392C108.297 39.392 107.046 39.0392 105.925 38.3414L104.868 40.0393ZM109.705 41.392C111.468 41.392 113.085 40.9438 114.531 40.0377L113.469 38.343C112.358 39.0392 111.112 39.392 109.705 39.392V41.392ZM114.528 40.0393C115.998 39.1242 117.136 37.7884 117.957 36.0825L116.154 35.2158C115.475 36.6292 114.575 37.6542 113.472 38.3414L114.528 40.0393ZM117.955 36.0865C118.797 34.3554 119.193 32.283 119.193 29.9091H117.193C117.193 32.0693 116.831 33.8236 116.156 35.2118L117.955 36.0865Z" fill="url(#paint8_linear_123_3)"/>
<defs>
<linearGradient id="paint0_linear_123_3" x1="138" y1="10" x2="138" y2="50" gradientUnits="userSpaceOnUse">
<stop stop-color="#58FF9B"/>
<stop offset="0.9999" stop-color="#40E8EB"/>
<stop offset="1" stop-color="#3EE6F1" stop-opacity="0"/>
<stop offset="1" stop-color="#3EE6F1"/>
</linearGradient>
<linearGradient id="paint1_linear_123_3" x1="138" y1="10" x2="138" y2="50" gradientUnits="userSpaceOnUse">
<stop stop-color="#58FF9B"/>
<stop offset="0.9999" stop-color="#3EE6F1"/>
<stop offset="1" stop-color="#3EE6F1" stop-opacity="0"/>
</linearGradient>
<linearGradient id="paint2_linear_123_3" x1="36" y1="10" x2="36" y2="50" gradientUnits="userSpaceOnUse">
<stop stop-color="#58FF9B"/>
<stop offset="0.9999" stop-color="#40E8EB"/>
<stop offset="1" stop-color="#3EE6F1" stop-opacity="0"/>
<stop offset="1" stop-color="#3EE6F1"/>
</linearGradient>
<linearGradient id="paint3_linear_123_3" x1="36" y1="10" x2="36" y2="50" gradientUnits="userSpaceOnUse">
<stop stop-color="#58FF9B"/>
<stop offset="0.9999" stop-color="#3EE6F1"/>
<stop offset="1" stop-color="#3EE6F1" stop-opacity="0"/>
</linearGradient>
<linearGradient id="paint4_linear_123_3" x1="61" y1="33.2" x2="61" y2="61.2" gradientUnits="userSpaceOnUse">
<stop stop-color="#82F7FF"/>
<stop offset="1" stop-color="#58FF9B"/>
<stop offset="1" stop-color="#3EE6F1"/>
</linearGradient>
<linearGradient id="paint5_linear_123_3" x1="85" y1="10" x2="85" y2="50" gradientUnits="userSpaceOnUse">
<stop stop-color="#58FF9B"/>
<stop offset="0.9999" stop-color="#40E8EB"/>
<stop offset="1" stop-color="#3EE6F1" stop-opacity="0"/>
<stop offset="1" stop-color="#3EE6F1"/>
</linearGradient>
<linearGradient id="paint6_linear_123_3" x1="85" y1="10" x2="85" y2="50" gradientUnits="userSpaceOnUse">
<stop stop-color="#58FF9B"/>
<stop offset="0.9999" stop-color="#3EE6F1"/>
<stop offset="1" stop-color="#3EE6F1" stop-opacity="0"/>
</linearGradient>
<linearGradient id="paint7_linear_123_3" x1="111" y1="10" x2="111" y2="50" gradientUnits="userSpaceOnUse">
<stop stop-color="#58FF9B"/>
<stop offset="0.9999" stop-color="#40E8EB"/>
<stop offset="1" stop-color="#3EE6F1" stop-opacity="0"/>
<stop offset="1" stop-color="#3EE6F1"/>
</linearGradient>
<linearGradient id="paint8_linear_123_3" x1="111" y1="10" x2="111" y2="50" gradientUnits="userSpaceOnUse">
<stop stop-color="#58FF9B"/>
<stop offset="0.9999" stop-color="#3EE6F1"/>
<stop offset="1" stop-color="#3EE6F1" stop-opacity="0"/>
</linearGradient>
</defs>
</svg>
