<svg width="32" height="17" viewBox="0 0 32 17" fill="none" xmlns="http://www.w3.org/2000/svg">
<path d="M6 14C3.79086 14 2 12.2091 2 10L2 5C2 2.79086 3.79086 1 6 1L26 1C28.2091 1 30 2.79086 30 5V10C30 12.2091 28.2091 14 26 14L6 14Z" fill="#005738"/>
<path d="M5.88068 3.72727H6.93182L9.40341 9.7642H9.48864L11.9602 3.72727H13.0114V11H12.1875V5.47443H12.1165L9.84375 11H9.0483L6.77557 5.47443H6.70455V11H5.88068V3.72727Z" fill="url(#paint0_linear_124_23)"/>
<path d="M5.88068 3.72727V3.22727H5.38068V3.72727H5.88068ZM6.93182 3.72727L7.39454 3.53783L7.26739 3.22727H6.93182V3.72727ZM9.40341 9.7642L8.94069 9.95365L9.06783 10.2642H9.40341V9.7642ZM9.48864 9.7642V10.2642H9.82421L9.95136 9.95365L9.48864 9.7642ZM11.9602 3.72727V3.22727L11.6247 3.22727L11.4975 3.53783L11.9602 3.72727ZM13.0114 3.72727H13.5114V3.22727H13.0114V3.72727ZM13.0114 11V11.5H13.5114V11H13.0114ZM12.1875 11H11.6875V11.5H12.1875V11ZM12.1875 5.47443H12.6875V4.97443H12.1875V5.47443ZM12.1165 5.47443V4.97443H11.7815L11.6541 5.28424L12.1165 5.47443ZM9.84375 11V11.5H10.1787L10.3062 11.1902L9.84375 11ZM9.0483 11L8.58588 11.1902L8.71331 11.5H9.0483V11ZM6.77557 5.47443L7.23798 5.28424L7.11056 4.97443H6.77557V5.47443ZM6.70455 5.47443V4.97443H6.20455V5.47443H6.70455ZM6.70455 11V11.5H7.20455V11H6.70455ZM5.88068 11H5.38068L5.38068 11.5H5.88068V11ZM5.88068 4.22727H6.93182V3.22727H5.88068V4.22727ZM6.4691 3.91672L8.94069 9.95365L9.86613 9.57476L7.39454 3.53783L6.4691 3.91672ZM9.40341 10.2642H9.48864V9.2642H9.40341V10.2642ZM9.95136 9.95365L12.4229 3.91672L11.4975 3.53783L9.02592 9.57476L9.95136 9.95365ZM11.9602 4.22727H13.0114V3.22727H11.9602V4.22727ZM12.5114 3.72727V11H13.5114V3.72727H12.5114ZM13.0114 10.5H12.1875V11.5H13.0114V10.5ZM12.6875 11V5.47443H11.6875V11H12.6875ZM12.1875 4.97443H12.1165V5.97443H12.1875V4.97443ZM11.6541 5.28424L9.38134 10.8098L10.3062 11.1902L12.5789 5.66463L11.6541 5.28424ZM9.84375 10.5H9.0483V11.5H9.84375V10.5ZM9.51071 10.8098L7.23798 5.28424L6.31316 5.66463L8.58588 11.1902L9.51071 10.8098ZM6.77557 4.97443H6.70455V5.97443H6.77557V4.97443ZM6.20455 5.47443V11H7.20455V5.47443H6.20455ZM6.70455 10.5H5.88068V11.5H6.70455V10.5ZM6.38068 11V3.72727H5.38068V11H6.38068Z" fill="url(#paint1_linear_124_23)"/>
<rect x="15" y="3" width="3" height="9" rx="1.5" fill="url(#paint2_linear_124_23)"/>
<path d="M25.733 6H24.8523C24.8002 5.74669 24.709 5.52415 24.5788 5.33239C24.451 5.14062 24.2947 4.97964 24.1101 4.84943C23.9278 4.71686 23.7254 4.61742 23.5028 4.55114C23.2803 4.48485 23.0483 4.4517 22.8068 4.4517C22.3665 4.4517 21.9676 4.56297 21.6101 4.78551C21.255 5.00805 20.9721 5.33594 20.7614 5.76918C20.553 6.20241 20.4489 6.7339 20.4489 7.36364C20.4489 7.99337 20.553 8.52486 20.7614 8.9581C20.9721 9.39134 21.255 9.71922 21.6101 9.94176C21.9676 10.1643 22.3665 10.2756 22.8068 10.2756C23.0483 10.2756 23.2803 10.2424 23.5028 10.1761C23.7254 10.1098 23.9278 10.0116 24.1101 9.88139C24.2947 9.74882 24.451 9.58665 24.5788 9.39489C24.709 9.20076 24.8002 8.97822 24.8523 8.72727H25.733C25.6667 9.09896 25.5459 9.43158 25.3707 9.72514C25.1955 10.0187 24.9777 10.2685 24.7173 10.4744C24.4569 10.678 24.1645 10.8331 23.8402 10.9396C23.5182 11.0462 23.1738 11.0994 22.8068 11.0994C22.1866 11.0994 21.6349 10.9479 21.152 10.6449C20.669 10.3419 20.2891 9.91098 20.0121 9.35227C19.7351 8.79356 19.5966 8.13068 19.5966 7.36364C19.5966 6.59659 19.7351 5.93371 20.0121 5.375C20.2891 4.81629 20.669 4.38542 21.152 4.08239C21.6349 3.77936 22.1866 3.62784 22.8068 3.62784C23.1738 3.62784 23.5182 3.68111 23.8402 3.78764C24.1645 3.89418 24.4569 4.05043 24.7173 4.25639C24.9777 4.45999 25.1955 4.70857 25.3707 5.00213C25.5459 5.29332 25.6667 5.62595 25.733 6Z" fill="url(#paint3_linear_124_23)"/>
<path d="M25.733 6V6.5H26.3294L26.2253 5.91275L25.733 6ZM24.8523 6L24.3625 6.1007L24.4446 6.5H24.8523V6ZM24.5788 5.33239L24.1628 5.60975L24.1652 5.61326L24.5788 5.33239ZM24.1101 4.84943L23.816 5.25384L23.8219 5.25806L24.1101 4.84943ZM23.5028 4.55114L23.3601 5.03033L23.3601 5.03033L23.5028 4.55114ZM21.6101 4.78551L21.3458 4.36104L21.3446 4.36183L21.6101 4.78551ZM20.7614 5.76918L20.3117 5.5505L20.3108 5.55249L20.7614 5.76918ZM20.7614 8.9581L20.3108 9.17478L20.3117 9.17678L20.7614 8.9581ZM21.6101 9.94176L21.3446 10.3654L21.3458 10.3662L21.6101 9.94176ZM23.5028 10.1761L23.3601 9.69694L23.3601 9.69694L23.5028 10.1761ZM24.1101 9.88139L24.4007 10.2883L24.4017 10.2876L24.1101 9.88139ZM24.5788 9.39489L24.1636 9.11637L24.1628 9.11754L24.5788 9.39489ZM24.8523 8.72727V8.22727H24.4454L24.3627 8.62566L24.8523 8.72727ZM25.733 8.72727L26.2252 8.81506L26.33 8.22727H25.733V8.72727ZM25.3707 9.72514L24.9414 9.46891L24.9414 9.46891L25.3707 9.72514ZM24.7173 10.4744L25.0253 10.8683L25.0275 10.8666L24.7173 10.4744ZM23.8402 10.9396L23.6842 10.4646L23.6831 10.4649L23.8402 10.9396ZM21.152 10.6449L20.8862 11.0684L20.8862 11.0684L21.152 10.6449ZM20.0121 9.35227L20.46 9.13019L20.46 9.13019L20.0121 9.35227ZM20.0121 5.375L19.5641 5.15291L20.0121 5.375ZM23.8402 3.78764L23.6831 4.26233L23.6842 4.26267L23.8402 3.78764ZM24.7173 4.25639L24.4072 4.64857L24.4094 4.6503L24.7173 4.25639ZM25.3707 5.00213L24.9414 5.25836L24.9423 5.25989L25.3707 5.00213ZM25.733 5.5H24.8523V6.5H25.733V5.5ZM25.342 5.8993C25.2782 5.58897 25.1637 5.3037 24.9925 5.05151L24.1652 5.61326C24.2544 5.74459 24.3222 5.9044 24.3625 6.1007L25.342 5.8993ZM24.9949 5.05504C24.8335 4.81306 24.6343 4.60724 24.3982 4.4408L23.8219 5.25806C23.9552 5.35205 24.0684 5.46819 24.1628 5.60974L24.9949 5.05504ZM24.4042 4.44506C24.1747 4.27814 23.9208 4.15392 23.6456 4.07194L23.3601 5.03033C23.53 5.08093 23.6809 5.15557 23.816 5.2538L24.4042 4.44506ZM23.6456 4.07194C23.3749 3.99131 23.0947 3.9517 22.8068 3.9517V4.9517C23.0019 4.9517 23.1857 4.97838 23.3601 5.03033L23.6456 4.07194ZM22.8068 3.9517C22.2775 3.9517 21.7863 4.08682 21.3458 4.36104L21.8743 5.20998C22.1488 5.03912 22.4554 4.9517 22.8068 4.9517V3.9517ZM21.3446 4.36183C20.8988 4.64119 20.5571 5.04589 20.3117 5.5505L21.211 5.98786C21.387 5.62598 21.6112 5.3749 21.8756 5.20919L21.3446 4.36183ZM20.3108 5.55249C20.0615 6.07091 19.9489 6.68119 19.9489 7.36364H20.9489C20.9489 6.78661 21.0446 6.33392 21.212 5.98586L20.3108 5.55249ZM19.9489 7.36364C19.9489 8.04608 20.0615 8.65636 20.3108 9.17478L21.212 8.74141C21.0446 8.39336 20.9489 7.94066 20.9489 7.36364H19.9489ZM20.3117 9.17678C20.5571 9.68138 20.8988 10.0861 21.3446 10.3654L21.8756 9.51808C21.6112 9.35237 21.387 9.10129 21.211 8.73942L20.3117 9.17678ZM21.3458 10.3662C21.7863 10.6404 22.2776 10.7756 22.8068 10.7756V9.77557C22.4554 9.77557 22.1488 9.68815 21.8743 9.51729L21.3458 10.3662ZM22.8068 10.7756C23.0947 10.7756 23.3749 10.736 23.6456 10.6553L23.3601 9.69694C23.1857 9.74889 23.0019 9.77557 22.8068 9.77557V10.7756ZM23.6456 10.6553C23.9191 10.5739 24.1718 10.4517 24.4007 10.2883L23.8195 9.47453C23.6838 9.57145 23.5316 9.64585 23.3601 9.69694L23.6456 10.6553ZM24.4017 10.2876C24.6359 10.1194 24.8341 9.91337 24.9949 9.67224L24.1628 9.11754C24.0679 9.25993 23.9536 9.37825 23.8185 9.47523L24.4017 10.2876ZM24.9941 9.6734C25.1636 9.4207 25.2779 9.13692 25.3418 8.82888L24.3627 8.62566C24.3225 8.81952 24.2545 8.98082 24.1636 9.11637L24.9941 9.6734ZM24.8523 9.22727H25.733V8.22727H24.8523V9.22727ZM25.2407 8.63949C25.1839 8.95789 25.0825 9.23238 24.9414 9.46891L25.8001 9.98137C26.0093 9.63078 26.1494 9.24003 26.2252 8.81506L25.2407 8.63949ZM24.9414 9.46891C24.7964 9.71187 24.6185 9.91511 24.4072 10.0823L25.0275 10.8666C25.337 10.6218 25.5947 10.3255 25.8001 9.98137L24.9414 9.46891ZM24.4094 10.0805C24.196 10.2473 23.9554 10.3755 23.6842 10.4646L23.9962 11.4147C24.3737 11.2907 24.7178 11.1087 25.0253 10.8683L24.4094 10.0805ZM23.6831 10.4649C23.4158 10.5534 23.1248 10.5994 22.8068 10.5994V11.5994C23.2228 11.5994 23.6206 11.5389 23.9973 11.4143L23.6831 10.4649ZM22.8068 10.5994C22.272 10.5994 21.8141 10.47 21.4177 10.2214L20.8862 11.0684C21.4558 11.4258 22.1011 11.5994 22.8068 11.5994V10.5994ZM21.4177 10.2214C21.0202 9.97192 20.7 9.61424 20.46 9.13019L19.5641 9.57436C19.8781 10.2077 20.3179 10.7118 20.8862 11.0684L21.4177 10.2214ZM20.46 9.13019C20.2242 8.65456 20.0966 8.07103 20.0966 7.36364H19.0966C19.0966 8.19034 19.2459 8.93256 19.5641 9.57436L20.46 9.13019ZM20.0966 7.36364C20.0966 6.65625 20.2242 6.07271 20.46 5.59709L19.5641 5.15291C19.2459 5.79471 19.0966 6.53694 19.0966 7.36364H20.0966ZM20.46 5.59709C20.7 5.11303 21.0202 4.75535 21.4177 4.50592L20.8862 3.65885C20.3179 4.01548 19.8781 4.51954 19.5641 5.15291L20.46 5.59709ZM21.4177 4.50592C21.8141 4.25722 22.272 4.12784 22.8068 4.12784V3.12784C22.1011 3.12784 21.4558 3.30149 20.8862 3.65885L21.4177 4.50592ZM22.8068 4.12784C23.1248 4.12784 23.4158 4.17388 23.6831 4.26233L23.9973 3.31295C23.6206 3.18833 23.2228 3.12784 22.8068 3.12784V4.12784ZM23.6842 4.26267C23.9543 4.35139 24.1942 4.48009 24.4072 4.64856L25.0275 3.86422C24.7197 3.62076 24.3748 3.43696 23.9962 3.31261L23.6842 4.26267ZM24.4094 4.6503C24.6195 4.81459 24.7967 5.01594 24.9414 5.25836L25.8001 4.7459C25.5944 4.40119 25.336 4.10539 25.0253 3.86249L24.4094 4.6503ZM24.9423 5.25989C25.0824 5.49282 25.1838 5.76639 25.2406 6.08725L26.2253 5.91275C26.1496 5.4855 26.0094 5.09383 25.7992 4.74437L24.9423 5.25989Z" fill="url(#paint4_linear_124_23)"/>
<defs>
<linearGradient id="paint0_linear_124_23" x1="10" y1="2" x2="10" y2="12" gradientUnits="userSpaceOnUse">
<stop stop-color="#58FF9B"/>
<stop offset="0.9999" stop-color="#40E8EB"/>
<stop offset="1" stop-color="#3EE6F1" stop-opacity="0"/>
<stop offset="1" stop-color="#3EE6F1"/>
</linearGradient>
<linearGradient id="paint1_linear_124_23" x1="10" y1="2" x2="10" y2="12" gradientUnits="userSpaceOnUse">
<stop stop-color="#58FF9B"/>
<stop offset="0.9999" stop-color="#3EE6F1"/>
<stop offset="1" stop-color="#3EE6F1" stop-opacity="0"/>
</linearGradient>
<linearGradient id="paint2_linear_124_23" x1="16.5" y1="3" x2="16.5" y2="12" gradientUnits="userSpaceOnUse">
<stop stop-color="#82F7FF"/>
<stop offset="1" stop-color="#58FF9B"/>
<stop offset="1" stop-color="#3EE6F1"/>
</linearGradient>
<linearGradient id="paint3_linear_124_23" x1="23" y1="2" x2="23" y2="12" gradientUnits="userSpaceOnUse">
<stop stop-color="#58FF9B"/>
<stop offset="0.9999" stop-color="#40E8EB"/>
<stop offset="1" stop-color="#3EE6F1" stop-opacity="0"/>
<stop offset="1" stop-color="#3EE6F1"/>
</linearGradient>
<linearGradient id="paint4_linear_124_23" x1="23" y1="2" x2="23" y2="12" gradientUnits="userSpaceOnUse">
<stop stop-color="#58FF9B"/>
<stop offset="0.9999" stop-color="#3EE6F1"/>
<stop offset="1" stop-color="#3EE6F1" stop-opacity="0"/>
</linearGradient>
</defs>
</svg>
