<svg width="36" height="36" viewBox="0 0 36 36" fill="none" xmlns="http://www.w3.org/2000/svg">
<path d="M24.7353 19.774C25.0161 19.5053 25.2395 19.185 25.3926 18.8315C25.5458 18.478 25.6257 18.0984 25.6277 17.7146C25.6297 17.3308 25.5537 16.9504 25.4042 16.5954C25.2547 16.2404 25.0346 15.9179 24.7567 15.6465C24.4788 15.3751 24.1485 15.1602 23.785 15.0142C23.4214 14.8682 23.0319 14.794 22.6388 14.796C22.2458 14.7979 21.857 14.8759 21.495 15.0255C21.133 15.175 20.805 15.3932 20.5299 15.6673C19.9815 16.2138 19.6761 16.9495 19.68 17.7146C19.684 18.4797 19.997 19.2124 20.551 19.7534C21.105 20.2944 21.8553 20.6 22.6388 20.6039C23.4223 20.6078 24.1758 20.3095 24.7353 19.774ZM12.4574 19.774C12.7381 19.5053 12.9615 19.185 13.1147 18.8315C13.2678 18.478 13.3477 18.0984 13.3497 17.7146C13.3517 17.3308 13.2757 16.9504 13.1262 16.5954C12.9767 16.2404 12.7567 15.9179 12.4787 15.6465C12.2008 15.3751 11.8705 15.1602 11.507 15.0142C11.1435 14.8682 10.7539 14.794 10.3609 14.796C9.9678 14.7979 9.57904 14.8759 9.21705 15.0255C8.85506 15.175 8.52702 15.3932 8.25191 15.6673C7.7035 16.2138 7.39809 16.9495 7.40205 17.7146C7.40601 18.4797 7.71901 19.2124 8.27304 19.7534C8.82707 20.2944 9.57736 20.6 10.3609 20.6039C11.1444 20.6078 11.8978 20.3095 12.4574 19.774ZM18.6384 9.69311C18.3636 9.41822 18.0357 9.19931 17.6736 9.04908C17.3116 8.89886 16.9226 8.8203 16.5292 8.81796C16.1358 8.81561 15.7458 8.88954 15.3819 9.03544C15.018 9.18135 14.6874 9.39633 14.4092 9.66793C14.131 9.93954 13.9107 10.2624 13.7612 10.6177C13.6117 10.973 13.5359 11.3538 13.5382 11.7379C13.5405 12.1221 13.6209 12.502 13.7747 12.8555C13.9284 13.2091 14.1525 13.5294 14.4339 13.7978C14.9936 14.3316 15.7462 14.6284 16.5285 14.6239C17.3108 14.6194 18.0597 14.314 18.6129 13.7739C19.1662 13.2338 19.4791 12.5025 19.4839 11.7386C19.4886 10.9747 19.1849 10.2398 18.6384 9.69311ZM18.6384 21.6826C18.3636 21.4077 18.0357 21.1888 17.6736 21.0386C17.3116 20.8884 16.9226 20.8098 16.5292 20.8075C16.1358 20.8051 15.7458 20.879 15.3819 21.025C15.018 21.1709 14.6874 21.3858 14.4092 21.6574C14.131 21.929 13.9107 22.2519 13.7612 22.6072C13.6117 22.9625 13.5359 23.3433 13.5382 23.7274C13.5405 24.1116 13.6209 24.4915 13.7747 24.8451C13.9284 25.1987 14.1525 25.5189 14.4339 25.7873C14.9936 26.3211 15.7462 26.6179 16.5285 26.6134C17.3108 26.6089 18.0597 26.3035 18.6129 25.7634C19.1662 25.2233 19.4791 24.492 19.4839 23.7281C19.4886 22.9642 19.1849 22.2293 18.6384 21.6826ZM17.0924 17.1565C17.0138 17.0796 16.9204 17.0187 16.8176 16.9771C16.7149 16.9354 16.6047 16.914 16.4935 16.9139C16.3822 16.9139 16.2721 16.9353 16.1693 16.9768C16.0665 17.0183 15.973 17.0792 15.8943 17.156C15.8156 17.2328 15.7532 17.324 15.7106 17.4243C15.668 17.5247 15.646 17.6322 15.646 17.7409C15.6459 17.8495 15.6678 17.9571 15.7103 18.0575C15.7529 18.1578 15.8152 18.2491 15.8938 18.3259C16.0527 18.4811 16.2681 18.5684 16.4928 18.5685C16.7175 18.5685 16.933 18.4815 17.0919 18.3264C17.2508 18.1713 17.3402 17.9609 17.3403 17.7415C17.3404 17.5221 17.2512 17.3117 17.0924 17.1565ZM35.1759 16.5268C31.8416 23.2862 27.0003 26.2342 23.5258 27.517C20.9524 28.4664 18.7576 28.6688 17.569 28.6982C17.2206 28.7295 16.8701 28.75 16.5157 28.75C10.2936 28.75 5.25 23.8249 5.25 17.75C5.25 11.6751 10.2936 6.75 16.5147 6.75C22.7367 6.75 27.7793 11.6751 27.7793 17.75C27.7823 20.2607 26.9009 22.6959 25.2831 24.6472C28.1188 23.0711 31.1347 20.3626 33.4317 15.7074C33.5512 15.4954 33.7494 15.3362 33.9855 15.2624C34.2215 15.1887 34.4776 15.2061 34.7009 15.311C34.9243 15.4159 35.098 15.6004 35.1863 15.8265C35.2747 16.0527 35.271 16.3033 35.1759 16.5268Z" fill="url(#paint0_linear_135_634)"/>
<defs>
<linearGradient id="paint0_linear_135_634" x1="20.25" y1="6.75" x2="20.25" y2="28.75" gradientUnits="userSpaceOnUse">
<stop stop-color="#75FAE1"/>
<stop offset="0.9999" stop-color="#5FFFBD"/>
<stop offset="1" stop-color="#7CFFA9"/>
</linearGradient>
</defs>
</svg>
