<svg width="20" height="40" viewBox="0 0 20 40" fill="none" xmlns="http://www.w3.org/2000/svg">
<path d="M0 10C0 4.47715 4.47715 0 10 0C15.5228 0 20 4.47715 20 10L20 30C20 35.5228 15.5228 40 10 40C4.47715 40 0 35.5228 0 30L0 10Z" fill="url(#paint0_linear_124_23)"/>
<path d="M5 10C5 7.23858 7.23858 5 10 5V5C12.7614 5 15 7.23858 15 10L15 30C15 32.7614 12.7614 35 10 35V35C7.23858 35 5 32.7614 5 30L5 10Z" fill="url(#paint1_linear_124_23)"/>
<path d="M8 9C8 7.89543 8.89543 7 10 7V7C11.1046 7 12 7.89543 12 9V9C12 10.1046 11.1046 11 10 11V11C8.89543 11 8 10.1046 8 9V9Z" fill="url(#paint2_linear_124_23)"/>
<defs>
<linearGradient id="paint0_linear_124_23" x1="10" y1="-1.42857" x2="10" y2="38.5714" gradientUnits="userSpaceOnUse">
<stop stop-color="#82F7FF"/>
<stop offset="1" stop-color="#58FF9B"/>
<stop offset="1" stop-color="#3EE6F1"/>
</linearGradient>
<linearGradient id="paint1_linear_124_23" x1="10" y1="3.92857" x2="10" y2="33.9286" gradientUnits="userSpaceOnUse">
<stop stop-color="#3AC6CF"/>
<stop offset="0.515625" stop-color="#52CE84"/>
<stop offset="1" stop-color="#5DB6B0"/>
</linearGradient>
<linearGradient id="paint2_linear_124_23" x1="10" y1="6.85714" x2="10" y2="10.8571" gradientUnits="userSpaceOnUse">
<stop stop-color="white"/>
<stop offset="0.515625" stop-color="#84FFB5"/>
<stop offset="1" stop-color="white"/>
</linearGradient>
</defs>
</svg>
