<svg width="36" height="36" viewBox="0 0 36 36" fill="none" xmlns="http://www.w3.org/2000/svg">
<path d="M18.84 11.9655H25.562C26.6229 11.9655 27.6403 12.3869 28.3904 13.1371C29.1406 13.8872 29.562 14.9046 29.562 15.9655V26.0005C29.562 27.0614 29.1406 28.0788 28.3904 28.8289C27.6403 29.5791 26.6229 30.0005 25.562 30.0005H10.375C9.31413 30.0005 8.29672 29.5791 7.54657 28.8289C6.79643 28.0788 6.375 27.0614 6.375 26.0005V15.9655C6.375 14.9046 6.79643 13.8872 7.54657 13.1371C8.29672 12.3869 9.31413 11.9655 10.375 11.9655H16.586L12.605 7.98448C12.4971 7.8766 12.4114 7.74852 12.353 7.60754C12.2945 7.46656 12.2644 7.31545 12.2644 7.16284C12.2643 7.01022 12.2943 6.8591 12.3527 6.71808C12.4111 6.57707 12.4966 6.44893 12.6045 6.34098C12.7124 6.23304 12.8405 6.1474 12.9814 6.08895C13.1224 6.03051 13.2735 6.0004 13.4261 6.00035C13.5788 6.00031 13.7299 6.03032 13.8709 6.08868C14.0119 6.14704 14.1401 6.2326 14.248 6.34048L17.713 9.80548L21.177 6.34048C21.395 6.12248 21.6907 6 21.999 6C22.3073 6 22.603 6.12248 22.821 6.34048C23.039 6.55849 23.1615 6.85417 23.1615 7.16248C23.1615 7.47079 23.039 7.76648 22.821 7.98448L18.84 11.9655ZM25.268 19.6955C25.7236 19.6955 26.1606 19.5145 26.4828 19.1923C26.805 18.8701 26.986 18.4331 26.986 17.9775C26.986 17.5218 26.805 17.0849 26.4828 16.7627C26.1606 16.4405 25.7236 16.2595 25.268 16.2595C24.8124 16.2595 24.3754 16.4405 24.0532 16.7627C23.731 17.0849 23.55 17.5218 23.55 17.9775C23.55 18.4331 23.731 18.8701 24.0532 19.1923C24.3754 19.5145 24.8124 19.6955 25.268 19.6955ZM25.268 25.7065C25.497 25.712 25.7249 25.6717 25.9381 25.5878C26.1513 25.504 26.3456 25.3784 26.5095 25.2184C26.6735 25.0583 26.8037 24.8671 26.8927 24.656C26.9816 24.4449 27.0274 24.2181 27.0274 23.989C27.0274 23.7599 26.9816 23.5331 26.8927 23.322C26.8037 23.1108 26.6735 22.9196 26.5095 22.7596C26.3456 22.5996 26.1513 22.4739 25.9381 22.3901C25.7249 22.3063 25.497 22.266 25.268 22.2715C24.8197 22.2823 24.3933 22.468 24.0801 22.7889C23.7668 23.1098 23.5914 23.5405 23.5914 23.989C23.5914 24.4374 23.7668 24.8681 24.0801 25.189C24.3933 25.51 24.8197 25.6957 25.268 25.7065Z" fill="url(#paint0_linear_135_640)"/>
<defs>
<linearGradient id="paint0_linear_135_640" x1="17.9685" y1="6" x2="17.9685" y2="30.0005" gradientUnits="userSpaceOnUse">
<stop stop-color="#75FAE1"/>
<stop offset="1" stop-color="#5FFFBD"/>
</linearGradient>
</defs>
</svg>
